<svg width="24" height="22" viewBox="0 0 24 22" fill="none" xmlns="http://www.w3.org/2000/svg">
<path d="M8.8 5H5.6V1.7C5.6 1.3 5.3 0.9 4.8 0.9C4.3 0.9 4.1 1.3 4.1 1.7V5H0.8C0.4 5 0 5.3 0 5.8C0 6.3 0.3 6.6 0.8 6.6H4.1V9.9C4.1 10.3 4.4 10.7 4.9 10.7C5.4 10.7 5.7 10.4 5.7 9.9V6.5H9C9.4 6.5 9.8 6.2 9.8 5.7C9.8 5.2 9.3 5 8.8 5ZM23.8 0.0999999V0H23.7C23.6 0 14.5 1.2 9.3 11.7C5.5 19.3 5.7 21.6 6 21.6C6.3 21.7 9.4 15.1 12.7 12.4C17.9 11.3 19.3 8.8 19.3 8.8C19.3 8.8 17.8 9 17.2 9C16.4 9 15.8 8.8 15.5 8.7C16.8 7.5 17.9 7.2 19 7C19.9 6.8 20.8 6.6 22 5.8C24.2 4.2 23.9 0.3 23.8 0.0999999Z" fill="white"/>
</svg>
