<svg width="23" height="23" viewBox="0 0 23 23" fill="none" xmlns="http://www.w3.org/2000/svg">
<path d="M22.796 21.8271L17.2066 16.2377C18.706 14.514 19.6137 12.265 19.6137 9.80687C19.6137 4.39601 15.2126 0 9.80687 0C4.39601 0 0 4.40111 0 9.80687C0 15.2126 4.40111 19.6137 9.80687 19.6137C12.265 19.6137 14.514 18.706 16.2377 17.2067L21.827 22.796C21.9596 22.9286 22.1381 23 22.3115 23C22.4849 23 22.6634 22.9337 22.796 22.796C23.0612 22.5308 23.0612 22.0922 22.796 21.8271ZM1.37184 9.80687C1.37184 5.15588 5.15587 1.37694 9.80177 1.37694C14.4528 1.37694 18.2317 5.16098 18.2317 9.80687C18.2317 14.4528 14.4528 18.2419 9.80177 18.2419C5.15587 18.2419 1.37184 14.4579 1.37184 9.80687Z" fill="#BCBCBC"/>
</svg>
